 <svg version="1.1" id="Layer_1" xmlns="http://www.w3.org/2000/svg" xmlns:xlink="http://www.w3.org/1999/xlink" width="198.43px" height="198.43px" viewBox="0 0 198.43 198.43" enable-background="new 0 0 198.43 198.43" xml:space="preserve">
   <g>
     <polygon points="23.599,123.665 23.599,135.297 11.966,135.297 11.966,146.933 23.599,146.933 35.231,146.933 35.231,135.297 46.865,135.297 46.865,123.665 35.231,123.665"></polygon>
     <polygon points="116.664,100.396 116.664,88.764 116.664,77.132 105.032,77.132 105.032,65.498 93.398,65.498 81.765,65.498 81.765,53.864 70.133,53.864 58.499,53.864 46.865,53.864 46.865,65.498 35.231,65.498 23.599,65.498 23.599,77.132 23.599,88.764 11.966,88.764 11.966,100.396 11.966,112.032 23.599,112.032 35.231,112.032 46.865,112.032 46.865,123.665 58.499,123.665 70.133,123.665 81.765,123.665 81.765,112.032 93.398,112.032 105.032,112.032 105.032,123.665 93.398,123.665 93.398,135.297 93.398,146.933 81.765,146.933 81.765,158.565 93.398,158.565 105.032,158.565 105.032,146.933 116.664,146.933 116.664,135.297 116.664,123.665 128.299,123.665 128.299,112.032 116.664,112.032">
     </polygon>
     <path d="M186.464,77.132V65.498h-11.632H163.2h-11.636h-11.634v11.634h-11.632v11.632v11.632v11.636h11.632h11.634H163.2h11.632 h11.632v-11.636h11.634V88.764V77.132H186.464z M163.2,77.132h11.632v11.632H163.2h-11.636V77.132H163.2z">
     </path>
     <rect x="0.332" y="112.032" width="11.634" height="11.633">
     </rect>
   </g>
 </svg>