<svg version="1.1" id="Layer_1" xmlns="http://www.w3.org/2000/svg" xmlns:xlink="http://www.w3.org/1999/xlink" width="198.43px" height="198.43px" viewBox="0 0 198.43 198.43" enable-background="new 0 0 198.43 198.43" xml:space="preserve">
  <g>
    <g>
      <path d="M174.843,57.295h-19.086V37.99v-6.482h-21.249H23.585H2.336v6.482v19.305v6.481h21.25h19.086V83.08H23.585H2.336v6.483 v19.306v6.48v0.001h40.336v19.304H23.585H2.336v6.483v19.304v6.48h21.25h110.922h21.249v-6.48v-19.304h40.337v-0.001v-6.482 v-19.304v-6.481h-21.251h-19.086V89.563h40.337v-0.002V83.08V63.776v-6.481H174.843z M18.542,57.295H6.493V37.936h12.05V57.295z M18.542,160.485H6.493v-19.357h12.05V160.485z M179.362,114.927h12.049v19.356h-12.049V114.927z M138.574,37.936h12.052v19.359 h-12.052V37.936z M82.289,37.99h52.219v19.305H82.289V37.99z M82.289,108.869V89.563h52.219v19.306H82.289z M116.142,115.351 v19.304h-52.22v-19.304H116.142z M116.142,83.08h-52.22V63.776h52.22V83.08z M23.585,57.295V37.99h52.22v19.305H63.921h-21.25 H23.585z M59.329,63.327v19.356H47.278V63.327H59.329z M18.542,108.895H6.493V89.537h12.05V108.895z M23.585,108.869V89.563h52.22 v19.306H63.921h-21.25H23.585z M59.329,114.927v19.356H47.278v-19.356H59.329z M75.805,160.441h-52.22v-19.304h52.22V160.441z M134.508,160.441H82.289v-19.304h52.219V160.441z M150.626,160.485h-12.052v-19.357h12.052V160.485z M174.843,115.351v19.304 h-19.086h-21.249h-11.884v-19.304H174.843z M138.574,108.895V89.537h12.052v19.357H138.574z M174.843,83.08h-19.086h-21.249 h-11.884V63.776h11.884h21.249h19.086V83.08z M191.411,82.684h-12.049V63.327h12.049V82.684z">
      </path>
    </g>
  </g>
</svg>