<?xml version="1.0" encoding="utf-8"?>
<!-- Generator: Adobe Illustrator 17.1.0, SVG Export Plug-In . SVG Version: 6.00 Build 0)  -->
<!DOCTYPE svg PUBLIC "-//W3C//DTD SVG 1.1//EN" "http://www.w3.org/Graphics/SVG/1.1/DTD/svg11.dtd">
<svg version="1.1" id="Слой_1" xmlns="http://www.w3.org/2000/svg" xmlns:xlink="http://www.w3.org/1999/xlink" x="0px" y="0px"
	 width="161.9px" height="500px" viewBox="0 0 161.9 500" enable-background="new 0 0 161.9 500" xml:space="preserve">
<rect x="15.7" y="61.9" fill="none" stroke="#000000" stroke-miterlimit="10" width="108.8" height="32.7"/>
<circle fill="none" stroke="#000000" stroke-miterlimit="10" cx="70.1" cy="147.9" r="41.6"/>
<polygon fill="none" stroke="#000000" stroke-miterlimit="10" points="70.1,194.6 82.1,219 109.1,222.9 89.6,241.9 94.2,268.8 
	70.1,256.1 45.9,268.8 50.6,241.9 31,222.9 58,219 "/>
<g>
	<rect x="31.2" y="305.6" fill="none" stroke="#000000" stroke-miterlimit="10" width="59.4" height="55"/>
	<polygon fill="none" stroke="#000000" stroke-miterlimit="10" points="84.3,347.5 44.2,297.5 121.1,278.8 	"/>
</g>
<line fill="none" stroke="#000000" stroke-miterlimit="10" x1="15.7" y1="406.6" x2="152.9" y2="364.7"/>
<path fill="none" stroke="#000000" stroke-miterlimit="10" d="M31.5,470.1c0,0,8.8-75,21.9-58.1s10,78.1,26.2,55s0-69.1,20.6-69.1
	c16.9,0,14.4,74.2,36.9,71.6"/>
<polyline fill="none" stroke="#000000" stroke-miterlimit="10" points="32.6,47.5 42.5,18.8 53.2,47.5 64.4,18.8 79.5,47.5 
	81.6,33.1 95.8,47.5 107.6,23.1 "/>
</svg>
